<?xml version="1.0" encoding="UTF-8"?>
<svg xmlns="http://www.w3.org/2000/svg" xmlns:xlink="http://www.w3.org/1999/xlink" width="64px" height="64px" viewBox="0 0 64 64" version="1.1">
<g id="surface1">
<path style=" stroke:none;fill-rule:nonzero;fill:rgb(49.803922%,22.745098%,52.54902%);fill-opacity:1;" d="M 55.390625 46 C 55.765625 45.324219 56 44.5625 56 43.878906 L 56 20.121094 C 56 19.4375 55.765625 18.675781 55.390625 18 L 32 32 Z M 55.390625 46 "/>
<path style=" stroke:none;fill-rule:nonzero;fill:rgb(40%,14.509804%,47.45098%);fill-opacity:1;" d="M 34.078125 59.488281 L 53.921875 47.609375 C 54.492188 47.265625 55.011719 46.675781 55.390625 46 L 32 32 L 8.609375 46 C 8.988281 46.675781 9.507812 47.265625 10.078125 47.609375 L 29.921875 59.488281 C 31.066406 60.171875 32.9375 60.171875 34.078125 59.488281 Z M 34.078125 59.488281 "/>
<path style=" stroke:none;fill-rule:nonzero;fill:rgb(60.392157%,31.764706%,58.823529%);fill-opacity:1;" d="M 55.390625 18 C 55.011719 17.324219 54.492188 16.734375 53.921875 16.390625 L 34.078125 4.511719 C 32.933594 3.828125 31.066406 3.828125 29.921875 4.511719 L 10.078125 16.390625 C 8.933594 17.074219 8 18.753906 8 20.121094 L 8 43.878906 C 8 44.5625 8.234375 45.324219 8.609375 46 Z M 55.390625 18 "/>
<path style=" stroke:none;fill-rule:nonzero;fill:rgb(100%,100%,100%);fill-opacity:1;" d="M 32.078125 48 C 23.210938 48 16 40.824219 16 32 C 16 23.175781 23.210938 16 32.078125 16 C 37.691406 16 42.933594 18.953125 45.839844 23.722656 L 38.953125 27.851562 C 37.5 25.472656 34.878906 24 32.078125 24 C 27.644531 24 24.039062 27.589844 24.039062 32 C 24.039062 36.410156 27.644531 40 32.078125 40 C 34.871094 40 37.484375 38.535156 38.941406 36.167969 L 45.839844 40.273438 C 42.9375 45.046875 37.695312 48 32.078125 48 Z M 32.078125 48 "/>
<path style=" stroke:none;fill-rule:evenodd;fill:rgb(100%,100%,100%);fill-opacity:1;" d="M 50 26 L 50 27.996094 L 46 27.996094 L 46 26 L 44 26 L 44 27.996094 L 42 27.996094 L 42 30 L 44 30 L 44 33.988281 L 42 33.988281 L 42 36 L 44 36 L 44 38 L 46 38 L 46 36 L 50 36 L 50 38 L 52 38 L 52 36 L 54 36 L 54 34 L 52 34 L 52 30 L 54 30 L 54 27.996094 L 52 27.996094 L 52 26 Z M 50 34 L 50 30 L 46 30 L 46 33.988281 Z M 50 34 "/>
</g>
</svg>
