<?xml version="1.0" encoding="UTF-8"?>
<svg xmlns="http://www.w3.org/2000/svg" xmlns:xlink="http://www.w3.org/1999/xlink" width="64px" height="64px" viewBox="0 0 64 64" version="1.1">
<g id="surface1">
<path style=" stroke:none;fill-rule:nonzero;fill:rgb(0%,56.862745%,88.627451%);fill-opacity:1;" d="M 64 32 C 64 49.671875 49.671875 64 32 64 C 14.328125 64 0 49.671875 0 32 C 0 14.328125 14.328125 0 32 0 C 49.671875 0 64 14.328125 64 32 Z M 64 32 "/>
<path style=" stroke:none;fill-rule:nonzero;fill:rgb(100%,100%,100%);fill-opacity:1;" d="M 51.707031 28.84375 C 51.605469 28.761719 50.699219 28.082031 48.789062 28.082031 C 48.28125 28.082031 47.773438 28.117188 47.273438 28.210938 C 46.90625 25.667969 44.804688 24.429688 44.710938 24.375 L 44.199219 24.074219 L 43.863281 24.5625 C 43.4375 25.21875 43.132812 25.9375 42.949219 26.699219 C 42.605469 28.148438 42.8125 29.511719 43.550781 30.675781 C 42.664062 31.167969 41.230469 31.292969 40.945312 31.300781 L 17.3125 31.300781 C 16.695312 31.300781 16.195312 31.800781 16.195312 32.417969 C 16.167969 34.488281 16.519531 36.542969 17.226562 38.488281 C 18.039062 40.625 19.25 42.195312 20.824219 43.15625 C 22.585938 44.238281 25.457031 44.855469 28.710938 44.855469 C 30.179688 44.863281 31.648438 44.726562 33.09375 44.457031 C 35.101562 44.085938 37.03125 43.386719 38.804688 42.382812 C 40.269531 41.53125 41.585938 40.457031 42.707031 39.1875 C 44.574219 37.070312 45.695312 34.707031 46.523438 32.613281 L 46.855469 32.613281 C 48.90625 32.613281 50.167969 31.792969 50.863281 31.105469 C 51.324219 30.667969 51.6875 30.136719 51.917969 29.542969 L 52.0625 29.113281 Z M 19.5 30.617188 L 22.667969 30.617188 C 22.820312 30.617188 22.945312 30.492188 22.945312 30.34375 L 22.945312 27.523438 C 22.945312 27.375 22.820312 27.25 22.667969 27.242188 L 19.5 27.242188 C 19.351562 27.242188 19.226562 27.367188 19.226562 27.519531 L 19.226562 30.34375 C 19.226562 30.5 19.351562 30.617188 19.5 30.617188 M 23.867188 30.617188 L 27.039062 30.617188 C 27.1875 30.617188 27.3125 30.492188 27.3125 30.34375 L 27.3125 27.523438 C 27.3125 27.375 27.1875 27.25 27.039062 27.242188 L 23.867188 27.242188 C 23.710938 27.242188 23.585938 27.367188 23.585938 27.523438 L 23.585938 30.34375 C 23.585938 30.5 23.710938 30.617188 23.867188 30.617188 M 28.292969 30.625 L 31.460938 30.625 C 31.613281 30.625 31.738281 30.5 31.738281 30.351562 L 31.738281 27.53125 C 31.738281 27.382812 31.613281 27.257812 31.460938 27.25 L 28.292969 27.25 C 28.144531 27.25 28.019531 27.375 28.019531 27.523438 L 28.019531 30.351562 C 28.019531 30.5 28.144531 30.617188 28.292969 30.625 M 32.675781 30.625 L 35.84375 30.625 C 35.992188 30.625 36.117188 30.5 36.125 30.351562 L 36.125 27.53125 C 36.125 27.375 36 27.25 35.84375 27.25 L 32.675781 27.25 C 32.523438 27.25 32.398438 27.375 32.398438 27.523438 L 32.398438 30.351562 C 32.398438 30.5 32.519531 30.625 32.675781 30.625 M 23.863281 26.5625 L 27.03125 26.5625 C 27.179688 26.5625 27.304688 26.4375 27.304688 26.28125 L 27.304688 23.460938 C 27.304688 23.3125 27.179688 23.1875 27.03125 23.1875 L 23.863281 23.1875 C 23.707031 23.1875 23.585938 23.3125 23.582031 23.460938 L 23.582031 26.28125 C 23.585938 26.4375 23.710938 26.5625 23.863281 26.5625 M 28.292969 26.5625 L 31.460938 26.5625 C 31.613281 26.5625 31.738281 26.4375 31.738281 26.28125 L 31.738281 23.460938 C 31.738281 23.3125 31.613281 23.1875 31.460938 23.1875 L 28.292969 23.1875 C 28.144531 23.1875 28.019531 23.3125 28.019531 23.460938 L 28.019531 26.28125 C 28.019531 26.4375 28.144531 26.5625 28.292969 26.5625 M 32.675781 26.5625 L 35.84375 26.5625 C 36 26.5625 36.117188 26.4375 36.125 26.28125 L 36.125 23.460938 C 36.125 23.304688 36 23.1875 35.84375 23.1875 L 32.675781 23.1875 C 32.523438 23.1875 32.398438 23.3125 32.398438 23.460938 L 32.398438 26.28125 C 32.398438 26.4375 32.519531 26.5625 32.675781 26.5625 M 32.675781 22.507812 L 35.84375 22.507812 C 36 22.507812 36.125 22.382812 36.125 22.226562 L 36.125 19.398438 C 36.125 19.25 36 19.125 35.84375 19.125 L 32.675781 19.125 C 32.523438 19.125 32.398438 19.25 32.398438 19.398438 L 32.398438 22.226562 C 32.398438 22.382812 32.519531 22.507812 32.675781 22.507812 M 37.085938 30.625 L 40.257812 30.625 C 40.40625 30.625 40.53125 30.5 40.53125 30.351562 L 40.53125 27.53125 C 40.53125 27.375 40.40625 27.257812 40.257812 27.25 L 37.085938 27.25 C 36.9375 27.25 36.8125 27.375 36.8125 27.523438 L 36.8125 30.351562 C 36.8125 30.5 36.9375 30.625 37.085938 30.625 "/>
</g>
</svg>
