<?xml version="1.0" encoding="UTF-8"?>
<svg xmlns="http://www.w3.org/2000/svg" xmlns:xlink="http://www.w3.org/1999/xlink" width="64px" height="64px" viewBox="0 0 64 64" version="1.1">
<g id="surface1">
<path style="fill-rule:nonzero;fill:rgb(100%,100%,100%);fill-opacity:1;stroke-width:2;stroke-linecap:butt;stroke-linejoin:miter;stroke:rgb(0.392157%,19.607843%,27.843137%);stroke-opacity:1;stroke-miterlimit:4;" d="M 13.001892 -1.001953 L 55.998108 -1.001953 C 63.732971 -1.001953 70.001953 5.267029 70.001953 13.001892 L 70.001953 55.998108 C 70.001953 63.732971 63.732971 70.001953 55.998108 70.001953 L 13.001892 70.001953 C 5.267029 70.001953 -1.001953 63.732971 -1.001953 55.998108 L -1.001953 13.001892 C -1.001953 5.267029 5.267029 -1.001953 13.001892 -1.001953 Z M 13.001892 -1.001953 " transform="matrix(0.876712,0,0,0.876712,1.753425,1.753425)"/>
<path style=" stroke:none;fill-rule:nonzero;fill:rgb(0%,38.039216%,54.117647%);fill-opacity:1;" d="M 48.804688 43.703125 C 46.683594 43.644531 45.0625 43.84375 43.675781 44.425781 C 43.28125 44.59375 42.652344 44.597656 42.589844 45.089844 C 42.804688 45.316406 42.839844 45.65625 43.011719 45.9375 C 43.34375 46.472656 43.902344 47.191406 44.398438 47.566406 C 44.945312 47.976562 45.503906 48.417969 46.089844 48.773438 C 47.128906 49.40625 48.289062 49.769531 49.289062 50.402344 C 49.878906 50.777344 50.464844 51.25 51.039062 51.671875 C 51.324219 51.878906 51.515625 52.203125 51.882812 52.335938 C 51.882812 52.3125 51.882812 52.292969 51.882812 52.273438 C 51.691406 52.027344 51.640625 51.6875 51.460938 51.429688 C 51.199219 51.167969 50.9375 50.90625 50.675781 50.644531 C 49.910156 49.625 48.933594 48.730469 47.898438 47.988281 C 47.074219 47.394531 45.226562 46.59375 44.882812 45.632812 C 44.863281 45.613281 44.84375 45.59375 44.820312 45.574219 C 45.40625 45.507812 46.09375 45.296875 46.632812 45.152344 C 47.539062 44.90625 48.351562 44.972656 49.289062 44.730469 C 49.710938 44.609375 50.132812 44.488281 50.554688 44.367188 C 50.554688 44.285156 50.554688 44.207031 50.554688 44.125 C 50.082031 43.640625 49.746094 42.996094 49.226562 42.554688 C 47.875 41.40625 46.402344 40.253906 44.882812 39.296875 C 44.039062 38.765625 43 38.417969 42.105469 37.96875 C 41.804688 37.816406 41.277344 37.738281 41.078125 37.484375 C 40.609375 36.886719 40.355469 36.128906 39.992188 35.433594 C 39.234375 33.972656 38.492188 32.378906 37.820312 30.84375 C 37.363281 29.800781 37.0625 28.765625 36.492188 27.828125 C 33.75 23.320312 30.800781 20.601562 26.230469 17.929688 C 25.257812 17.359375 24.089844 17.136719 22.851562 16.84375 C 22.1875 16.800781 21.523438 16.761719 20.859375 16.722656 C 20.453125 16.550781 20.03125 16.054688 19.652344 15.816406 C 18.136719 14.859375 14.253906 12.777344 13.132812 15.515625 C 12.425781 17.242188 14.191406 18.925781 14.824219 19.800781 C 15.265625 20.414062 15.835938 21.101562 16.152344 21.792969 C 16.359375 22.246094 16.394531 22.699219 16.574219 23.179688 C 17.011719 24.363281 17.394531 25.648438 17.960938 26.742188 C 18.25 27.292969 18.566406 27.875 18.925781 28.371094 C 19.148438 28.675781 19.53125 28.808594 19.589844 29.277344 C 19.21875 29.796875 19.199219 30.609375 18.988281 31.269531 C 18.042969 34.242188 18.398438 37.941406 19.773438 40.140625 C 20.195312 40.816406 21.183594 42.265625 22.550781 41.710938 C 23.742188 41.226562 23.476562 39.71875 23.816406 38.390625 C 23.894531 38.089844 23.847656 37.867188 23.996094 37.667969 C 23.996094 37.6875 23.996094 37.707031 23.996094 37.726562 C 24.359375 38.453125 24.722656 39.175781 25.085938 39.898438 C 25.886719 41.195312 27.316406 42.546875 28.523438 43.460938 C 29.152344 43.933594 29.644531 44.753906 30.457031 45.03125 C 30.457031 45.011719 30.457031 44.992188 30.457031 44.96875 C 30.4375 44.96875 30.414062 44.96875 30.394531 44.96875 C 30.238281 44.726562 29.992188 44.625 29.792969 44.425781 C 29.320312 43.964844 28.792969 43.386719 28.402344 42.859375 C 27.304688 41.363281 26.332031 39.730469 25.445312 38.027344 C 25.023438 37.214844 24.65625 36.320312 24.300781 35.492188 C 24.160156 35.175781 24.164062 34.691406 23.878906 34.527344 C 23.488281 35.132812 22.910156 35.625 22.609375 36.339844 C 22.125 37.480469 22.0625 38.875 21.886719 40.324219 C 21.78125 40.359375 21.828125 40.335938 21.765625 40.382812 C 20.921875 40.179688 20.628906 39.3125 20.316406 38.570312 C 19.527344 36.695312 19.378906 33.671875 20.074219 31.511719 C 20.253906 30.949219 21.066406 29.1875 20.738281 28.671875 C 20.582031 28.15625 20.0625 27.859375 19.773438 27.464844 C 19.414062 26.980469 19.054688 26.335938 18.808594 25.773438 C 18.160156 24.3125 17.859375 22.667969 17.175781 21.1875 C 16.851562 20.480469 16.300781 19.765625 15.847656 19.136719 C 15.347656 18.4375 14.789062 17.925781 14.402344 17.082031 C 14.261719 16.785156 14.074219 16.304688 14.28125 15.996094 C 14.34375 15.789062 14.4375 15.703125 14.640625 15.636719 C 14.992188 15.363281 15.96875 15.726562 16.332031 15.875 C 17.300781 16.277344 18.109375 16.660156 18.925781 17.203125 C 19.320312 17.464844 19.71875 17.96875 20.195312 18.109375 C 20.375 18.109375 20.558594 18.109375 20.738281 18.109375 C 21.589844 18.304688 22.539062 18.171875 23.332031 18.410156 C 24.738281 18.835938 25.996094 19.5 27.136719 20.222656 C 30.617188 22.417969 33.460938 25.546875 35.40625 29.277344 C 35.71875 29.875 35.855469 30.449219 36.128906 31.085938 C 36.6875 32.371094 37.386719 33.695312 37.941406 34.949219 C 38.492188 36.203125 39.03125 37.46875 39.8125 38.511719 C 40.222656 39.058594 41.808594 39.355469 42.527344 39.660156 C 43.03125 39.871094 43.859375 40.09375 44.339844 40.382812 C 45.253906 40.933594 46.136719 41.589844 46.996094 42.195312 C 47.421875 42.496094 48.738281 43.15625 48.804688 43.703125 Z M 48.804688 43.703125 "/>
<path style=" stroke:none;fill-rule:evenodd;fill:rgb(0%,38.039216%,54.117647%);fill-opacity:1;" d="M 21.824219 20.707031 C 21.382812 20.695312 21.070312 20.753906 20.738281 20.824219 C 20.738281 20.847656 20.738281 20.867188 20.738281 20.886719 C 20.757812 20.886719 20.777344 20.886719 20.796875 20.886719 C 21.011719 21.320312 21.382812 21.597656 21.644531 21.972656 C 21.84375 22.394531 22.046875 22.816406 22.246094 23.238281 C 22.265625 23.21875 22.289062 23.199219 22.308594 23.179688 C 22.679688 22.917969 22.851562 22.496094 22.851562 21.851562 C 22.699219 21.695312 22.679688 21.496094 22.550781 21.308594 C 22.375 21.058594 22.042969 20.914062 21.824219 20.707031 Z M 21.824219 20.707031 "/>
</g>
</svg>
