<?xml version="1.0" encoding="UTF-8"?>
<svg xmlns="http://www.w3.org/2000/svg" xmlns:xlink="http://www.w3.org/1999/xlink" width="64px" height="64px" viewBox="0 0 64 64" version="1.1">
<g id="surface1">
<path style=" stroke:none;fill-rule:nonzero;fill:rgb(100%,100%,100%);fill-opacity:1;" d="M 33.292969 51.746094 L 33.308594 51.746094 C 33.339844 51.824219 32.109375 55.226562 31.660156 56.304688 C 31.558594 56.546875 31.523438 56.605469 31.46875 56.601562 C 30.472656 56.476562 29.476562 56.335938 28.484375 56.183594 C 26.597656 55.898438 23.4375 55.34375 22.640625 55.164062 L 22.457031 55.125 L 23.589844 54.871094 C 26.011719 54.324219 27.175781 54.03125 28.359375 53.667969 C 30.125 53.121094 31.597656 52.539062 33.019531 51.863281 L 32.8125 51.953125 C 32.9375 51.886719 33.101562 51.820312 33.261719 51.761719 L 33.296875 51.75 Z M 23.875 49.535156 C 23.882812 49.546875 23.347656 50.40625 22.402344 51.894531 C 22.003906 52.523438 21.550781 53.238281 21.398438 53.480469 C 21.238281 53.726562 21.011719 54.101562 20.894531 54.316406 L 20.671875 54.699219 L 20.558594 54.671875 C 20.289062 54.597656 18.375 53.921875 17.871094 53.722656 C 17.15625 53.4375 16.574219 53.167969 16.011719 52.863281 L 16.109375 52.910156 C 15.609375 52.664062 15.183594 52.386719 14.785156 52.074219 L 14.800781 52.085938 L 17.101562 51.457031 C 20.417969 50.554688 22.253906 50.035156 23.453125 49.65625 C 23.683594 49.589844 23.871094 49.535156 23.871094 49.539062 Z M 25.210938 49.5 C 25.214844 49.492188 25.554688 49.613281 25.964844 49.765625 C 26.707031 50.0625 27.644531 50.363281 28.601562 50.601562 L 28.769531 50.636719 C 29.957031 50.945312 31.398438 51.203125 32.875 51.363281 L 33.011719 51.375 C 33.179688 51.386719 33.265625 51.40625 33.238281 51.421875 C 33.1875 51.457031 32.074219 51.828125 31.253906 52.085938 C 28.046875 53.0625 24.828125 54.007812 21.601562 54.921875 C 21.59375 54.921875 21.589844 54.921875 21.582031 54.921875 C 21.46875 54.921875 21.363281 54.890625 21.269531 54.839844 L 21.273438 54.839844 C 21.40625 54.648438 21.539062 54.480469 21.679688 54.320312 L 21.675781 54.328125 C 22.695312 53.109375 23.707031 51.761719 24.644531 50.363281 L 24.75 50.195312 C 24.902344 49.960938 25.054688 49.730469 25.207031 49.496094 Z M 19.171875 45.183594 L 19.414062 45.453125 C 20.421875 46.59375 21.59375 47.5625 22.898438 48.320312 L 22.964844 48.359375 C 23.121094 48.4375 23.253906 48.523438 23.375 48.625 L 23.371094 48.625 C 20.375 49.710938 17.367188 50.773438 14.351562 51.8125 C 14.300781 51.78125 14.253906 51.746094 14.203125 51.710938 L 14.0625 51.613281 L 14.28125 51.296875 C 14.988281 50.269531 15.882812 49.140625 17.832031 46.792969 Z M 18.203125 44.8125 C 18.21875 44.828125 17.257812 46.207031 15.910156 48.09375 L 14.6875 49.808594 C 14.484375 50.097656 14.175781 50.550781 14 50.824219 L 13.683594 51.316406 L 13.347656 51.03125 C 12.839844 50.582031 12.378906 50.113281 11.953125 49.613281 L 11.9375 49.589844 C 11.359375 48.910156 10.921875 48.089844 10.683594 47.191406 L 10.671875 47.148438 C 10.59375 46.785156 10.589844 46.601562 10.664062 46.578125 C 12.007812 46.253906 13.347656 45.9375 14.691406 45.628906 L 17.402344 44.996094 C 17.835938 44.890625 18.195312 44.808594 18.203125 44.808594 Z M 35.460938 44.222656 L 35.464844 44.226562 C 35.464844 44.394531 35.085938 45.953125 34.765625 47.082031 C 34.5 48.023438 34.273438 48.765625 33.859375 50.074219 C 33.753906 50.429688 33.636719 50.777344 33.511719 51.125 C 31.148438 50.714844 29.046875 50.105469 27.050781 49.296875 L 27.261719 49.375 C 26.808594 49.195312 26.367188 49 25.929688 48.785156 C 26.203125 48.628906 26.535156 48.46875 26.878906 48.328125 L 26.941406 48.304688 C 30.386719 46.804688 33.957031 45.089844 35.179688 44.355469 C 35.257812 44.296875 35.351562 44.253906 35.453125 44.226562 Z M 27.984375 41.613281 C 27.941406 41.75 27.898438 41.867188 27.847656 41.980469 L 27.851562 41.964844 C 26.957031 44.074219 26.078125 45.8125 25.101562 47.488281 L 25.226562 47.253906 C 25.058594 47.558594 24.886719 47.859375 24.703125 48.15625 C 24.691406 48.15625 24.464844 48.019531 24.191406 47.851562 C 22.660156 46.929688 21.351562 45.8125 20.253906 44.507812 L 20.234375 44.484375 L 20.101562 44.316406 L 20.792969 44.128906 C 23.414062 43.421875 25.625 42.636719 27.753906 41.707031 L 27.4375 41.832031 C 27.734375 41.707031 27.976562 41.605469 27.980469 41.613281 Z M 29.1875 41.214844 C 29.351562 41.296875 29.488281 41.371094 29.617188 41.449219 L 29.597656 41.441406 C 31.265625 42.390625 33.199219 43.164062 35.238281 43.660156 L 35.394531 43.691406 L 35.570312 43.734375 L 35.328125 43.863281 C 34.328125 44.421875 31.015625 45.800781 27.636719 47.066406 C 27.28125 47.199219 26.925781 47.335938 26.566406 47.46875 C 26.519531 47.496094 26.460938 47.515625 26.402344 47.523438 L 26.398438 47.523438 C 26.398438 47.515625 26.539062 47.25 26.707031 46.929688 C 27.542969 45.417969 28.347656 43.625 29.011719 41.765625 L 29.089844 41.503906 C 29.140625 41.351562 29.183594 41.222656 29.191406 41.21875 Z M 17.382812 39.101562 C 17.414062 39.101562 17.40625 39.160156 17.355469 39.4375 C 17.316406 39.707031 17.289062 39.976562 17.273438 40.25 C 17.261719 40.363281 17.257812 40.496094 17.257812 40.628906 C 17.257812 41.605469 17.511719 42.523438 17.953125 43.316406 L 17.9375 43.289062 C 18.089844 43.601562 18.210938 43.859375 18.203125 43.863281 C 18.148438 43.910156 13.144531 45.375 11.570312 45.808594 L 10.664062 46.058594 C 10.605469 46.074219 10.601562 46.0625 10.621094 45.933594 C 11.007812 44.433594 11.777344 43.148438 12.820312 42.144531 L 12.824219 42.140625 C 13.535156 41.390625 14.355469 40.757812 15.261719 40.261719 L 15.3125 40.234375 C 15.996094 39.84375 16.683594 39.464844 17.378906 39.101562 Z M 36.152344 36.867188 L 36.152344 37.1875 C 36.128906 39.40625 35.9375 41.558594 35.585938 43.660156 L 35.621094 43.417969 C 34.109375 42.976562 32.796875 42.421875 31.566406 41.738281 L 31.667969 41.789062 C 30.980469 41.425781 30.402344 41.066406 29.851562 40.671875 L 29.898438 40.703125 C 29.902344 40.691406 30.214844 40.527344 30.589844 40.332031 C 32.230469 39.484375 33.585938 38.679688 34.890625 37.804688 L 34.730469 37.90625 C 35.191406 37.597656 35.886719 37.09375 36.042969 36.960938 Z M 23.097656 36.335938 C 22.835938 36.972656 22.589844 37.484375 22.3125 37.984375 L 22.355469 37.898438 C 21.625 39.328125 20.816406 40.734375 19.746094 42.449219 L 19.367188 43.050781 C 19.328125 43.105469 19.3125 43.089844 19.195312 42.855469 C 18.941406 42.347656 18.738281 41.761719 18.621094 41.144531 L 18.613281 41.101562 C 18.566406 40.800781 18.542969 40.453125 18.542969 40.101562 C 18.542969 39.660156 18.582031 39.226562 18.660156 38.804688 L 18.65625 38.847656 C 18.753906 38.375 18.75 38.386719 18.972656 38.273438 C 19.933594 37.777344 23.066406 36.308594 23.097656 36.335938 Z M 24.613281 35.710938 L 24.632812 35.71875 C 24.675781 35.796875 24.714844 35.886719 24.746094 35.980469 L 24.75 35.992188 C 25.101562 36.851562 25.519531 37.59375 26.023438 38.269531 L 26.003906 38.242188 C 26.632812 39.070312 27.328125 39.796875 28.101562 40.433594 L 28.121094 40.453125 C 28.171875 40.492188 28.183594 40.484375 26.953125 40.953125 C 25.371094 41.546875 23.78125 42.101562 22.171875 42.617188 C 21.492188 42.839844 20.914062 43.023438 20.890625 43.035156 C 20.824219 43.058594 20.84375 43.015625 21.042969 42.707031 C 22.085938 41.007812 23.085938 39.027344 23.929688 36.964844 L 24.03125 36.683594 C 24.160156 36.351562 24.285156 36.015625 24.308594 35.941406 C 24.324219 35.851562 24.386719 35.777344 24.472656 35.75 L 24.476562 35.75 C 24.515625 35.726562 24.558594 35.714844 24.609375 35.714844 Z M 29.558594 33.761719 C 29.570312 33.988281 29.578125 34.261719 29.578125 34.527344 C 29.578125 35.03125 29.554688 35.53125 29.511719 36.023438 L 29.519531 35.960938 C 29.339844 37.390625 29.035156 38.683594 28.605469 39.921875 L 28.648438 39.785156 C 28.136719 39.351562 27.675781 38.90625 27.25 38.425781 L 27.238281 38.410156 C 26.714844 37.820312 26.25 37.15625 25.871094 36.441406 L 25.84375 36.386719 C 25.691406 36.097656 25.550781 35.757812 25.4375 35.402344 L 25.421875 35.359375 C 25.539062 35.273438 29.527344 33.734375 29.558594 33.761719 Z M 30.609375 33.359375 C 30.859375 33.453125 31.074219 33.574219 31.269531 33.722656 L 31.261719 33.71875 C 32.519531 34.527344 34.019531 35.375 35.566406 36.144531 L 35.84375 36.269531 C 36.128906 36.394531 36.160156 36.34375 35.511719 36.785156 C 34.023438 37.777344 32.316406 38.710938 30.527344 39.496094 L 30.308594 39.578125 C 30.082031 39.683594 29.851562 39.78125 29.621094 39.875 C 29.636719 39.71875 29.667969 39.578125 29.714844 39.441406 L 29.707031 39.457031 C 30.171875 37.875 30.460938 36.054688 30.511719 34.167969 L 30.511719 34.136719 C 30.515625 33.386719 30.515625 33.378906 30.589844 33.363281 L 30.601562 33.363281 Z M 35.707031 31.6875 C 35.925781 32.808594 36.066406 34.113281 36.101562 35.445312 L 36.101562 35.480469 C 36.113281 35.546875 36.117188 35.625 36.117188 35.707031 C 36.117188 35.808594 36.109375 35.910156 36.09375 36.003906 L 36.09375 35.996094 C 36.035156 35.996094 34.8125 35.277344 33.945312 34.734375 C 33.125 34.214844 32.316406 33.679688 31.523438 33.125 C 31.453125 33.066406 31.460938 33.066406 32.078125 32.851562 C 33.128906 32.488281 35.625 31.691406 35.707031 31.691406 Z M 38 30.34375 L 27.984375 33.609375 L 19.28125 37.453125 L 16.84375 38.101562 C 16.222656 38.6875 15.5625 39.285156 14.867188 39.890625 C 14.097656 40.558594 13.375 41.167969 12.828125 41.601562 C 12.101562 42.207031 11.449219 42.851562 10.859375 43.546875 L 10.839844 43.570312 C 10.242188 44.28125 9.75 45.101562 9.398438 45.996094 L 9.375 46.058594 C 9.246094 46.441406 9.171875 46.886719 9.171875 47.351562 C 9.171875 48.273438 9.46875 49.125 9.976562 49.8125 L 9.96875 49.800781 C 11.390625 51.601562 13.230469 53.003906 15.347656 53.875 L 15.4375 53.910156 C 16.75 54.476562 18.351562 55.027344 20 55.464844 L 20.25 55.523438 C 23.226562 56.230469 26.738281 56.75 30.328125 56.96875 L 30.507812 56.976562 C 30.695312 56.988281 30.914062 56.996094 31.136719 56.996094 C 31.382812 56.996094 31.625 56.988281 31.867188 56.972656 L 31.835938 56.972656 C 32.148438 56.46875 32.476562 55.859375 32.765625 55.234375 L 32.8125 55.121094 C 34.207031 52.441406 35.417969 49.320312 36.285156 46.058594 L 36.359375 45.730469 C 36.789062 43.851562 37.109375 41.625 37.257812 39.351562 L 37.261719 39.222656 C 37.320312 38.484375 37.339844 36.027344 37.296875 35.191406 C 37.238281 33.886719 37.101562 32.667969 36.890625 31.46875 L 36.914062 31.640625 C 36.898438 31.570312 36.886719 31.492188 36.886719 31.414062 C 36.886719 31.382812 36.886719 31.351562 36.890625 31.324219 L 36.890625 31.328125 C 36.921875 31.308594 37.015625 31.277344 38.246094 30.917969 Z M 29.023438 12.832031 C 29.054688 12.835938 29.089844 12.898438 29.183594 13.105469 C 29.441406 13.671875 30.246094 15.207031 30.441406 15.5 C 30.5 15.601562 30.605469 15.605469 29.539062 15.433594 C 26.976562 15.023438 26.144531 14.882812 26.144531 14.863281 C 26.195312 14.820312 26.25 14.785156 26.3125 14.753906 L 26.316406 14.753906 C 27.191406 14.257812 27.945312 13.730469 28.644531 13.136719 L 28.625 13.15625 L 28.988281 12.851562 Z M 19.960938 11.023438 L 21.023438 12.351562 C 21.613281 13.078125 22.199219 13.808594 22.328125 13.964844 C 22.40625 14.050781 22.480469 14.144531 22.546875 14.246094 L 22.554688 14.253906 C 22.523438 14.277344 21.011719 13.984375 20.210938 13.796875 C 19.644531 13.679688 19.089844 13.53125 18.539062 13.355469 L 18.121094 13.222656 L 18.125 13.121094 C 18.128906 12.613281 18.773438 11.855469 19.863281 11.089844 Z M 20.257812 10.785156 L 20.550781 10.886719 C 22.808594 11.558594 25.476562 12.085938 28.21875 12.367188 L 28.414062 12.386719 C 28.664062 12.40625 28.875 12.429688 28.882812 12.433594 C 28.75 12.515625 28.597656 12.601562 28.433594 12.675781 L 28.40625 12.6875 C 27.332031 13.226562 26.152344 13.882812 25.332031 14.394531 C 25.191406 14.492188 25.03125 14.582031 24.863281 14.65625 L 24.84375 14.660156 C 24.722656 14.644531 24.605469 14.625 24.488281 14.605469 L 24.191406 14.558594 L 23.429688 13.816406 C 22.09375 12.523438 21.054688 11.523438 20.648438 11.148438 Z M 27.550781 7.394531 L 27.5625 7.394531 C 27.566406 7.402344 27.597656 7.613281 27.628906 7.863281 C 27.78125 9.054688 28.039062 10.132812 28.398438 11.160156 L 28.367188 11.050781 C 28.644531 11.882812 28.648438 11.835938 28.316406 11.742188 C 27.546875 11.527344 24.085938 10.933594 21.582031 10.585938 C 21.332031 10.554688 21.085938 10.515625 20.839844 10.476562 C 20.808594 10.441406 22.644531 9.480469 23.457031 9.101562 C 24.5 8.617188 27.347656 7.433594 27.554688 7.394531 Z M 27.679688 7.007812 C 27.511719 6.988281 24.824219 7.953125 23.097656 8.652344 C 21.070312 9.425781 19.332031 10.316406 17.707031 11.371094 L 17.816406 11.300781 C 17.414062 11.578125 17.078125 11.917969 16.808594 12.308594 L 16.800781 12.320312 C 16.773438 12.398438 16.757812 12.484375 16.757812 12.574219 C 16.757812 12.574219 16.757812 12.578125 16.757812 12.578125 L 17.773438 13.535156 L 20.1875 14.308594 L 25.933594 15.335938 L 32.5 16.464844 L 32.566406 15.902344 L 32.507812 15.890625 L 31.644531 15.753906 L 31.464844 15.445312 C 30.574219 13.871094 29.757812 12.257812 29.015625 10.601562 C 28.644531 9.785156 28.269531 8.773438 27.957031 7.734375 L 27.910156 7.554688 C 27.769531 7.046875 27.753906 7.015625 27.679688 7.003906 Z M 25.597656 30.875 C 25.140625 31.464844 24.675781 31.988281 24.183594 32.480469 L 24.179688 32.480469 C 22.796875 33.898438 21.257812 35.152344 19.585938 36.214844 L 19.480469 36.273438 C 19.257812 36.417969 19.054688 36.546875 19.023438 36.5625 C 18.976562 36.589844 19.039062 36.515625 19.828125 35.660156 C 20.320312 35.117188 20.703125 34.671875 21.136719 34.113281 C 21.335938 33.820312 21.589844 33.582031 21.878906 33.398438 L 21.886719 33.390625 C 23.007812 32.582031 25.566406 30.847656 25.597656 30.875 Z M 26.773438 30.585938 C 26.808594 30.578125 26.855469 30.644531 27.0625 30.953125 C 27.480469 31.578125 27.78125 32.324219 27.90625 33.125 L 27.910156 33.15625 L 27.925781 33.308594 L 26.890625 33.707031 C 25.035156 34.429688 23.328125 35.136719 22.171875 35.667969 C 21.847656 35.816406 21.277344 36.085938 20.90625 36.273438 C 20.53125 36.464844 20.226562 36.609375 20.226562 36.601562 C 20.226562 36.589844 20.460938 36.414062 20.75 36.207031 C 22.898438 34.667969 24.765625 32.9375 26.402344 31.007812 L 26.4375 30.960938 C 26.59375 30.769531 26.738281 30.601562 26.757812 30.589844 L 26.769531 30.589844 Z M 24.226562 28.585938 C 24.871094 28.898438 25.425781 29.257812 25.929688 29.675781 L 25.917969 29.664062 C 25.789062 29.800781 25.644531 29.917969 25.488281 30.019531 L 25.476562 30.023438 C 24.761719 30.542969 23.667969 31.363281 23.035156 31.867188 C 22.367188 32.398438 22.34375 32.417969 22.421875 32.300781 C 22.765625 31.800781 23.101562 31.226562 23.398438 30.628906 L 23.433594 30.550781 C 23.640625 30.128906 23.851562 29.605469 24.035156 29.066406 L 24.066406 28.96875 C 24.101562 28.824219 24.160156 28.695312 24.226562 28.582031 L 24.226562 28.589844 Z M 33.785156 26.242188 C 33.804688 26.261719 32.761719 27.722656 32.140625 28.546875 C 31.398438 29.53125 30.078125 31.183594 29.171875 32.253906 C 28.9375 32.535156 28.699219 32.8125 28.453125 33.078125 C 28.433594 33.085938 28.421875 32.976562 28.417969 32.804688 C 28.410156 31.808594 28.171875 30.875 27.761719 30.042969 L 27.777344 30.078125 C 27.601562 29.726562 27.574219 29.644531 27.609375 29.613281 C 27.75 29.484375 29.957031 28.226562 31.347656 27.480469 C 32.304688 26.96875 33.769531 26.222656 33.785156 26.242188 Z M 35.363281 25.847656 L 35.734375 26.089844 C 36.726562 26.742188 37.582031 27.375 38.398438 28.054688 L 38.347656 28.011719 C 38.773438 28.371094 39.605469 29.117188 39.777344 29.296875 L 39.867188 29.394531 L 39.257812 29.566406 C 36.125 30.421875 33.035156 31.410156 29.988281 32.53125 C 29.640625 32.660156 29.34375 32.765625 29.320312 32.765625 C 29.277344 32.765625 29.234375 32.804688 30.015625 32.085938 C 31.910156 30.359375 33.582031 28.445312 35.023438 26.363281 L 35.097656 26.25 Z M 29.351562 23.375 C 29.222656 23.964844 29.085938 24.453125 28.925781 24.929688 L 28.953125 24.828125 C 28.464844 26.273438 27.875 27.515625 27.167969 28.679688 L 27.214844 28.59375 L 27.027344 28.902344 L 26.601562 28.492188 C 26.203125 28.082031 25.738281 27.734375 25.226562 27.464844 L 25.195312 27.449219 C 25.054688 27.386719 24.933594 27.316406 24.820312 27.234375 L 24.828125 27.238281 C 24.828125 27.175781 26.121094 26 27.113281 25.160156 C 27.828125 24.554688 29.332031 23.351562 29.347656 23.371094 Z M 30.339844 23.199219 C 30.445312 23.21875 31.429688 23.675781 32.171875 24.046875 C 32.847656 24.386719 33.875 24.933594 33.925781 24.984375 C 33.933594 24.988281 33.570312 25.175781 33.121094 25.402344 C 31.699219 26.113281 30.480469 26.785156 29.210938 27.5625 C 28.84375 27.785156 28.542969 27.964844 28.535156 27.964844 C 28.5 27.964844 28.511719 27.9375 28.714844 27.566406 C 29.375 26.363281 29.90625 24.972656 30.234375 23.503906 L 30.253906 23.398438 C 30.285156 23.269531 30.316406 23.1875 30.339844 23.195312 Z M 47.183594 21.46875 C 47.351562 21.527344 47.492188 21.597656 47.625 21.683594 L 47.617188 21.679688 C 49.535156 22.789062 51.195312 24.046875 52.679688 25.484375 L 52.671875 25.476562 C 53.078125 25.871094 54.0625 26.898438 54.046875 26.90625 L 53.292969 26.964844 C 49.101562 27.34375 45.292969 28.003906 41.589844 28.9375 L 42.105469 28.828125 C 41.839844 28.886719 41.613281 28.941406 41.59375 28.941406 C 41.578125 28.941406 41.871094 28.652344 42.242188 28.292969 C 44.136719 26.609375 45.683594 24.578125 46.785156 22.296875 L 46.835938 22.183594 C 47.019531 21.8125 47.175781 21.488281 47.183594 21.46875 L 47.1875 21.46875 Z M 46.605469 21.316406 C 46.621094 21.335938 46.121094 22.121094 45.808594 22.566406 C 45.347656 23.222656 44.6875 24.078125 43.179688 25.976562 L 41.191406 28.480469 C 41.011719 28.71875 40.824219 28.949219 40.632812 29.175781 C 40.5625 29.085938 40.492188 28.988281 40.425781 28.886719 L 40.417969 28.871094 C 39.542969 27.574219 38.53125 26.460938 37.382812 25.507812 L 37.355469 25.484375 C 37.171875 25.332031 36.984375 25.179688 36.796875 25.03125 C 36.738281 24.992188 36.6875 24.949219 36.640625 24.902344 C 36.640625 24.882812 37.925781 24.332031 38.910156 23.933594 C 40.808594 23.167969 42.738281 22.480469 44.691406 21.871094 C 45.613281 21.589844 46.59375 21.308594 46.605469 21.320312 Z M 24.507812 21.296875 C 24.527344 21.277344 25.578125 21.523438 26.152344 21.683594 C 27.265625 21.992188 28.160156 22.300781 29.035156 22.652344 L 28.839844 22.585938 C 28.839844 22.59375 28.640625 22.769531 28.394531 22.976562 C 27.402344 23.804688 26.449219 24.671875 25.304688 25.773438 C 25.097656 25.980469 24.886719 26.179688 24.664062 26.367188 C 24.648438 26.367188 24.644531 26.316406 24.648438 26.261719 C 24.714844 25.695312 24.753906 25.035156 24.753906 24.371094 C 24.753906 23.425781 24.679688 22.5 24.535156 21.597656 L 24.546875 21.695312 C 24.523438 21.578125 24.511719 21.441406 24.503906 21.304688 L 24.503906 21.300781 Z M 38.214844 18.148438 C 38.28125 18.148438 39.660156 18.523438 40.375 18.738281 C 42.449219 19.359375 44.160156 20 45.816406 20.734375 L 45.527344 20.621094 L 46.078125 20.871094 L 45.691406 20.960938 C 42.304688 21.722656 39.390625 22.648438 36.589844 23.796875 L 36.96875 23.660156 C 36.746094 23.75 36.550781 23.828125 36.535156 23.828125 C 36.578125 23.679688 36.632812 23.550781 36.699219 23.433594 L 36.691406 23.441406 C 37.421875 21.976562 37.941406 20.273438 38.148438 18.472656 L 38.15625 18.398438 C 38.167969 18.261719 38.191406 18.148438 38.214844 18.148438 Z M 37.636719 18.058594 C 37.609375 18.429688 37.546875 18.769531 37.460938 19.101562 L 37.472656 19.058594 C 36.976562 20.722656 36.328125 22.171875 35.519531 23.515625 L 35.566406 23.429688 C 35.460938 23.628906 35.355469 23.796875 35.242188 23.957031 L 35.25 23.941406 C 35.074219 23.867188 34.925781 23.789062 34.785156 23.695312 L 34.796875 23.703125 C 33.972656 23.214844 33 22.730469 31.988281 22.308594 L 31.828125 22.25 C 31.632812 22.175781 31.4375 22.089844 31.25 22 C 31.199219 21.957031 33.628906 20.347656 34.917969 19.574219 C 35.949219 18.953125 37.609375 18.03125 37.636719 18.058594 Z M 29.597656 16.464844 C 29.621094 16.445312 32.730469 16.984375 34.144531 17.253906 C 35.195312 17.453125 36.71875 17.773438 36.8125 17.8125 C 36.855469 17.828125 36.699219 17.917969 36.191406 18.148438 C 34.28125 18.988281 32.652344 19.886719 31.117188 20.914062 L 31.238281 20.839844 C 30.851562 21.097656 30.527344 21.308594 30.519531 21.308594 C 30.511719 21.203125 30.503906 21.082031 30.503906 20.960938 C 30.503906 20.914062 30.503906 20.867188 30.507812 20.824219 L 30.507812 20.828125 C 30.507812 20.820312 30.507812 20.8125 30.507812 20.800781 C 30.507812 19.324219 30.207031 17.921875 29.667969 16.644531 L 29.691406 16.714844 C 29.660156 16.644531 29.625 16.558594 29.601562 16.472656 L 29.601562 16.464844 Z M 29.078125 16.390625 C 29.203125 16.636719 29.296875 16.917969 29.34375 17.214844 L 29.347656 17.234375 C 29.578125 18.140625 29.714844 19.179688 29.714844 20.25 C 29.714844 20.636719 29.695312 21.023438 29.660156 21.398438 L 29.664062 21.351562 L 29.640625 21.429688 L 29.25 21.304688 C 28.441406 21.046875 27.125 20.660156 25.996094 20.347656 C 25.601562 20.246094 25.214844 20.128906 24.828125 19.992188 C 25.257812 19.519531 25.691406 19.082031 26.152344 18.671875 L 26.167969 18.65625 C 27.03125 17.902344 27.980469 17.160156 28.964844 16.464844 L 29.078125 16.394531 Z M 22.523438 15.148438 C 22.675781 15.160156 22.8125 15.1875 22.949219 15.222656 L 22.929688 15.21875 C 24.21875 15.5 26.523438 15.945312 28 16.195312 C 28.171875 16.214844 28.320312 16.25 28.46875 16.300781 L 28.453125 16.296875 C 28.394531 16.347656 28.328125 16.390625 28.25 16.421875 L 28.246094 16.421875 C 28 16.546875 26.992188 17.148438 26.660156 17.375 C 25.855469 17.90625 25.152344 18.46875 24.507812 19.089844 L 24.511719 19.085938 C 24.378906 19.222656 24.242188 19.355469 24.101562 19.484375 C 24.070312 19.40625 24.042969 19.308594 24.019531 19.214844 L 24.019531 19.199219 C 23.613281 17.75 23.148438 16.519531 22.601562 15.339844 L 22.664062 15.496094 C 22.609375 15.382812 22.5625 15.269531 22.515625 15.152344 Z M 18.796875 14.117188 C 18.910156 14.144531 19.003906 14.175781 19.097656 14.210938 L 19.078125 14.207031 C 19.363281 14.304688 19.738281 14.414062 20.175781 14.539062 C 20.476562 14.621094 20.816406 14.714844 21.171875 14.804688 C 21.625 14.921875 22.003906 15.019531 22.007812 15.027344 C 22.058594 15.082031 22.824219 17.523438 23.082031 18.457031 C 23.183594 18.816406 23.257812 19.113281 23.25 19.117188 C 23.183594 19.035156 23.121094 18.9375 23.066406 18.835938 L 23.0625 18.828125 C 22.019531 17.09375 20.71875 15.632812 19.195312 14.445312 L 19.160156 14.421875 C 19.035156 14.324219 18.914062 14.222656 18.792969 14.121094 Z M 16.847656 12.226562 C 16.796875 12.324219 16.765625 12.4375 16.765625 12.5625 C 16.765625 12.679688 16.792969 12.789062 16.839844 12.886719 L 16.839844 12.878906 C 17.027344 13.207031 17.265625 13.488281 17.542969 13.714844 L 17.546875 13.71875 C 17.546875 13.71875 20.910156 17 21.324219 17.476562 C 23.027344 19.339844 24.074219 21.832031 24.074219 24.566406 C 24.074219 24.601562 24.074219 24.636719 24.074219 24.671875 L 24.074219 24.667969 C 24.074219 24.75 24.078125 24.851562 24.078125 24.949219 C 24.078125 26.828125 23.636719 28.601562 22.851562 30.179688 L 22.878906 30.109375 C 20.335938 34.679688 16.972656 38.492188 12.957031 41.476562 L 12.863281 41.542969 L 13.613281 41.292969 C 14.371094 40.765625 15.253906 40.234375 16.167969 39.761719 L 16.300781 39.699219 C 19.746094 37.796875 23.867188 35.914062 28.128906 34.324219 L 28.796875 34.105469 C 35.902344 31.433594 44.414062 29.078125 53.183594 27.457031 L 54.835938 27.203125 L 54.734375 27.035156 C 54.214844 26.21875 53.714844 25.523438 53.179688 24.855469 L 53.210938 24.898438 C 51.734375 23.089844 49.953125 21.597656 47.9375 20.476562 L 47.84375 20.429688 C 44.46875 18.636719 40.554688 17.273438 36.421875 16.550781 L 36.179688 16.515625 C 34.664062 16.230469 33.140625 15.96875 31.617188 15.734375 C 28.886719 15.3125 26.164062 14.871094 23.441406 14.398438 C 22.558594 14.242188 21.234375 14.023438 20.359375 13.832031 C 19.546875 13.660156 18.875 13.476562 18.21875 13.257812 L 18.355469 13.296875 C 17.796875 13.078125 17.011719 12.863281 16.84375 12.226562 Z M 16.847656 12.226562 "/>
</g>
</svg>
